<svg width="32" height="25" viewBox="0 0 32 25" fill="none" xmlns="http://www.w3.org/2000/svg">
<rect width="32" height="25" fill="white"/>
<rect x="0.32" y="0.32" width="31.36" height="24.36" stroke="#001F3F" stroke-opacity="0.32" stroke-width="0.64"/>
<path d="M13.8732 18.465L13.5424 18.8727L13.8732 18.465ZM16 8.80188L15.6165 9.16044C15.7158 9.26662 15.8546 9.32688 16 9.32688C16.1454 9.32688 16.2842 9.26662 16.3835 9.16044L16 8.80188ZM18.1268 18.4651L18.4576 18.8727L18.1268 18.4651ZM16 19.6L16 19.075L16 19.6ZM14.204 18.0574C13.1891 17.2338 12.0042 16.1539 11.0774 14.9719C10.1405 13.777 9.525 12.5502 9.525 11.4223H8.475C8.475 12.9048 9.26628 14.3637 10.2511 15.6198C11.246 16.8887 12.4977 18.0249 13.5424 18.8727L14.204 18.0574ZM9.525 11.4223C9.525 9.38902 10.4124 8.13211 11.5102 7.70223C12.6056 7.2733 14.1383 7.57945 15.6165 9.16044L16.3835 8.44332C14.7118 6.65549 12.7445 6.09131 11.1274 6.72452C9.51269 7.35677 8.475 9.09447 8.475 11.4223H9.525ZM18.4576 18.8727C19.5023 18.025 20.754 16.8887 21.7489 15.6198C22.7337 14.3637 23.525 12.9048 23.525 11.4222H22.475C22.475 12.5502 21.8595 13.777 20.9226 14.9719C19.9958 16.1539 18.8109 17.2338 17.796 18.0574L18.4576 18.8727ZM23.525 11.4222C23.525 9.09445 22.4873 7.35676 20.8726 6.72451C19.2555 6.09131 17.2882 6.65549 15.6165 8.44332L16.3835 9.16044C17.8617 7.57945 19.3944 7.2733 20.4898 7.70223C21.5876 8.13211 22.475 9.38901 22.475 11.4222H23.525ZM13.5424 18.8727C14.4324 19.5949 15.0496 20.125 16 20.125L16 19.075C15.494 19.075 15.1788 18.8484 14.204 18.0574L13.5424 18.8727ZM17.796 18.0574C16.8212 18.8484 16.506 19.075 16 19.075L16 20.125C16.9504 20.125 17.5676 19.595 18.4576 18.8727L17.796 18.0574Z" fill="#BFBFBF"/>
</svg>
