<svg width="14" height="13" viewBox="0 0 14 13" fill="none" xmlns="http://www.w3.org/2000/svg">
<path d="M5.17704 10.8272L4.70445 11.4096L5.17704 10.8272ZM7 2.54447L6.45217 3.0567C6.59399 3.20838 6.79235 3.29447 7 3.29447C7.20765 3.29447 7.40601 3.20838 7.54783 3.0567L7 2.54447ZM8.82297 10.8272L9.29556 11.4096L8.82297 10.8272ZM7 11.8L7.00001 11.05L7 11.8ZM5.64963 10.2448C4.78821 9.54578 3.7916 8.63623 3.01671 7.64793C2.22736 6.6412 1.75 5.65602 1.75 4.7905H0.25C0.25 6.16253 0.978464 7.47939 1.83629 8.57347C2.70858 9.68598 3.80048 10.676 4.70445 11.4096L5.64963 10.2448ZM1.75 4.7905C1.75 3.13189 2.46765 2.19191 3.261 1.88126C4.05089 1.57197 5.24036 1.76066 6.45217 3.0567L7.54783 2.03224C6.05974 0.440713 4.24921 -0.116585 2.71408 0.484522C1.1824 1.08428 0.25 2.7111 0.25 4.7905H1.75ZM9.29556 11.4096C10.1995 10.676 11.2914 9.686 12.1637 8.57348C13.0215 7.47941 13.75 6.16254 13.75 4.79048H12.25C12.25 5.65603 11.7726 6.64122 10.9833 7.64796C10.2084 8.63625 9.2118 9.54579 8.35038 10.2448L9.29556 11.4096ZM13.75 4.79048C13.75 2.71109 12.8176 1.08427 11.2859 0.484519C9.75079 -0.116585 7.94026 0.440713 6.45217 2.03224L7.54783 3.0567C8.75964 1.76066 9.94911 1.57196 10.739 1.88126C11.5324 2.19191 12.25 3.13188 12.25 4.79048H13.75ZM4.70445 11.4096C5.44309 12.009 6.05842 12.55 7 12.55L7.00001 11.05C6.69324 11.05 6.50938 10.9425 5.64963 10.2448L4.70445 11.4096ZM8.35038 10.2448C7.49063 10.9425 7.30677 11.05 7.00001 11.05L7 12.55C7.94158 12.55 8.55691 12.009 9.29556 11.4096L8.35038 10.2448Z" fill="white"/>
</svg>
