<svg width="21" height="18" viewBox="0 0 21 18" fill="none" xmlns="http://www.w3.org/2000/svg">
<path d="M14.7969 0.600647C13.0223 0.600647 11.4685 1.36377 10.5 2.65369C9.53148 1.36377 7.97773 0.600647 6.20312 0.600647C4.79051 0.602239 3.4362 1.16411 2.43733 2.16298C1.43846 3.16185 0.876592 4.51615 0.875 5.92877C0.875 11.9444 9.79445 16.8136 10.1743 17.0147C10.2744 17.0686 10.3863 17.0968 10.5 17.0968C10.6137 17.0968 10.7256 17.0686 10.8257 17.0147C11.2055 16.8136 20.125 11.9444 20.125 5.92877C20.1234 4.51615 19.5615 3.16185 18.5627 2.16298C17.5638 1.16411 16.2095 0.602239 14.7969 0.600647ZM10.5 15.6225C8.93078 14.7081 2.25 10.5428 2.25 5.92877C2.25136 4.88076 2.66829 3.87606 3.40935 3.135C4.15041 2.39394 5.15511 1.97701 6.20312 1.97565C7.87461 1.97565 9.27797 2.86596 9.86406 4.29596C9.91586 4.42205 10.004 4.52991 10.1172 4.60581C10.2304 4.68171 10.3637 4.72223 10.5 4.72223C10.6363 4.72223 10.7696 4.68171 10.8828 4.60581C10.996 4.52991 11.0841 4.42205 11.1359 4.29596C11.722 2.86338 13.1254 1.97565 14.7969 1.97565C15.8449 1.97701 16.8496 2.39394 17.5907 3.135C18.3317 3.87606 18.7486 4.88076 18.75 5.92877C18.75 10.5359 12.0675 14.7073 10.5 15.6225Z" fill="white"/>
</svg>
