<svg width="12" height="12" viewBox="0 0 12 12" fill="none" xmlns="http://www.w3.org/2000/svg">
<path fill-rule="evenodd" clip-rule="evenodd" d="M2.4765 1.125C2.48431 1.125 2.49214 1.125 2.5 1.125L9.5235 1.125C9.85697 1.12499 10.142 1.12497 10.3699 1.15371C10.6115 1.18419 10.8451 1.25265 11.0369 1.43262C11.2321 1.61577 11.3097 1.84428 11.3438 2.08203C11.375 2.30042 11.375 2.57199 11.375 2.88179L11.375 3.27006C11.375 3.51431 11.375 3.72547 11.3568 3.90156C11.3372 4.09103 11.2943 4.2688 11.1913 4.43947C11.0891 4.60885 10.9514 4.7318 10.7927 4.84202C10.6432 4.94585 10.4523 5.05335 10.2277 5.17978L8.75644 6.00797C8.42154 6.1965 8.30494 6.26438 8.22709 6.33196C8.04829 6.48718 7.94591 6.65941 7.89779 6.87519C7.87723 6.96743 7.875 7.08361 7.875 7.43647L7.875 8.8025C7.87503 9.25311 7.87505 9.63568 7.82868 9.92979C7.77937 10.2425 7.6649 10.5425 7.36489 10.7301C7.07171 10.9135 6.74875 10.8967 6.4349 10.8221C6.13263 10.7503 5.76013 10.6047 5.31318 10.43L5.26974 10.413C5.06038 10.3311 4.87705 10.2595 4.73192 10.1846C4.57595 10.104 4.4311 10.0038 4.32028 9.84785C4.20821 9.69013 4.16328 9.52102 4.14324 9.34816C4.12497 9.19052 4.12498 9.00132 4.125 8.7903L4.125 7.43647C4.125 7.08361 4.12278 6.96743 4.10221 6.87519C4.0541 6.65941 3.95171 6.48719 3.77292 6.33196C3.69507 6.26438 3.57846 6.19649 3.24357 6.00797L1.77235 5.17978C1.54774 5.05335 1.35677 4.94585 1.20729 4.84202C1.04862 4.7318 0.910954 4.60885 0.808736 4.43947C0.705742 4.2688 0.662853 4.09103 0.643224 3.90156C0.624982 3.72547 0.624991 3.51431 0.625002 3.27006L0.625003 2.90733C0.625003 2.89879 0.625002 2.89027 0.625001 2.88178C0.624978 2.57198 0.624957 2.30042 0.656253 2.08203C0.690322 1.84428 0.76788 1.61577 0.96309 1.43262C1.15492 1.25265 1.38848 1.18419 1.63012 1.15371C1.85796 1.12497 2.14303 1.12499 2.4765 1.125ZM1.72398 1.89782C1.55715 1.91886 1.5041 1.95345 1.47626 1.97958C1.4518 2.00253 1.41952 2.04292 1.39867 2.18841C1.3759 2.34727 1.375 2.56434 1.375 2.90733V3.25224C1.375 3.51935 1.37547 3.69139 1.38923 3.82427C1.40205 3.94803 1.42406 4.00754 1.45087 4.05196C1.47845 4.09766 1.52425 4.149 1.63517 4.22605C1.75203 4.30722 1.91168 4.39754 2.15497 4.53449L3.61148 5.35441C3.62512 5.36209 3.63855 5.36965 3.65178 5.37709C3.93114 5.53425 4.12139 5.64129 4.2646 5.76562C4.56028 6.02231 4.74998 6.33411 4.83423 6.71198C4.87518 6.89563 4.87511 7.10156 4.87501 7.39224C4.87501 7.40677 4.875 7.42151 4.875 7.43647V8.77121C4.875 9.00728 4.87558 9.1525 4.88825 9.26182C4.89971 9.36067 4.91776 9.39388 4.93165 9.41343C4.94679 9.43474 4.97678 9.46691 5.07602 9.51814C5.18222 9.57298 5.32854 9.63069 5.55961 9.72102C6.04012 9.90886 6.36332 10.0343 6.60821 10.0924C6.84751 10.1493 6.92637 10.1198 6.96717 10.0943C7.00113 10.073 7.05364 10.0298 7.08783 9.81299C7.12389 9.58429 7.125 9.26173 7.125 8.77121V7.43647C7.125 7.42151 7.125 7.40677 7.12499 7.39225C7.12489 7.10156 7.12482 6.89563 7.16577 6.71198C7.25002 6.33411 7.43972 6.02231 7.7354 5.76562C7.87861 5.64129 8.06886 5.53426 8.3482 5.3771C8.36144 5.36965 8.37488 5.36209 8.38853 5.35441L9.84504 4.53449C10.0883 4.39754 10.248 4.30722 10.3648 4.22605C10.4758 4.149 10.5216 4.09766 10.5491 4.05196C10.5759 4.00754 10.598 3.94803 10.6108 3.82427C10.6245 3.69139 10.625 3.51935 10.625 3.25224V2.90733C10.625 2.56434 10.6241 2.34727 10.6013 2.18841C10.5805 2.04292 10.5482 2.00253 10.5237 1.97958C10.4959 1.95345 10.4429 1.91886 10.276 1.89782C10.1007 1.8757 9.86352 1.875 9.5 1.875H2.5C2.13649 1.875 1.89927 1.8757 1.72398 1.89782Z" fill="#1C274C"/>
</svg>
