<svg width="18" height="14" viewBox="0 0 18 14" fill="none" xmlns="http://www.w3.org/2000/svg">
<path d="M17.25 7C17.25 7.18234 17.1776 7.35721 17.0486 7.48614C16.9197 7.61507 16.7448 7.6875 16.5625 7.6875H1.4375C1.25516 7.6875 1.0803 7.61507 0.951364 7.48614C0.822433 7.35721 0.75 7.18234 0.75 7C0.75 6.81766 0.822433 6.6428 0.951364 6.51386C1.0803 6.38493 1.25516 6.3125 1.4375 6.3125H16.5625C16.7448 6.3125 16.9197 6.38493 17.0486 6.51386C17.1776 6.6428 17.25 6.81766 17.25 7ZM1.4375 2.1875H16.5625C16.7448 2.1875 16.9197 2.11507 17.0486 1.98614C17.1776 1.8572 17.25 1.68234 17.25 1.5C17.25 1.31766 17.1776 1.1428 17.0486 1.01386C16.9197 0.884933 16.7448 0.8125 16.5625 0.8125H1.4375C1.25516 0.8125 1.0803 0.884933 0.951364 1.01386C0.822433 1.1428 0.75 1.31766 0.75 1.5C0.75 1.68234 0.822433 1.8572 0.951364 1.98614C1.0803 2.11507 1.25516 2.1875 1.4375 2.1875ZM16.5625 11.8125H1.4375C1.25516 11.8125 1.0803 11.8849 0.951364 12.0139C0.822433 12.1428 0.75 12.3177 0.75 12.5C0.75 12.6823 0.822433 12.8572 0.951364 12.9861C1.0803 13.1151 1.25516 13.1875 1.4375 13.1875H16.5625C16.7448 13.1875 16.9197 13.1151 17.0486 12.9861C17.1776 12.8572 17.25 12.6823 17.25 12.5C17.25 12.3177 17.1776 12.1428 17.0486 12.0139C16.9197 11.8849 16.7448 11.8125 16.5625 11.8125Z" fill="#F8FBFF"/>
</svg>
