<svg width="22" height="16" viewBox="0 0 22 16" fill="none" xmlns="http://www.w3.org/2000/svg">
<path d="M21.8532 5.4368L19.6601 1.04883C19.5793 0.887326 19.4675 0.743317 19.331 0.625029C19.1946 0.506741 19.0361 0.416491 18.8648 0.359432C18.6935 0.302374 18.5126 0.279625 18.3324 0.292484C18.1523 0.305343 17.9765 0.353559 17.815 0.434378L15.6777 1.50258L11.1755 0.311488C11.0599 0.281425 10.9386 0.281425 10.8231 0.311488L6.32085 1.50258L4.18359 0.434378C4.0221 0.353559 3.84626 0.305343 3.66614 0.292484C3.48601 0.279625 3.30511 0.302374 3.13378 0.359432C2.96244 0.416491 2.80402 0.506741 2.66757 0.625029C2.53112 0.743317 2.4193 0.887326 2.33851 1.04883L0.145385 5.43594C0.0645657 5.59743 0.0163499 5.77326 0.00349058 5.95339C-0.00936869 6.13352 0.0133805 6.31442 0.0704391 6.48575C0.127498 6.65709 0.217748 6.81551 0.336036 6.95196C0.454324 7.08841 0.598333 7.20023 0.759838 7.28102L3.08015 8.44204L7.84882 11.8477C7.91909 11.8977 7.99807 11.9342 8.08171 11.9552L13.5817 13.3302C13.6969 13.359 13.8176 13.3576 13.9321 13.326C14.0465 13.2944 14.1508 13.2336 14.2348 13.1497L18.9674 8.41625L21.2379 7.28102C21.5638 7.11785 21.8117 6.83193 21.9269 6.48611C22.0421 6.14028 22.0153 5.76286 21.8523 5.4368H21.8532ZM17.1361 8.30453L14.179 5.9361C14.0465 5.83001 13.8795 5.77666 13.71 5.78634C13.5406 5.79602 13.3807 5.86803 13.2612 5.98852C11.7306 7.53024 10.0248 7.33516 8.93679 6.64766L12.6527 3.03828H15.3864L17.7248 7.71414L17.1361 8.30453ZM3.56828 1.66328L5.32742 2.54157L3.12999 6.92868L1.37429 6.05125L3.56828 1.66328ZM13.537 11.901L8.5432 10.6532L4.31507 7.63336L6.72132 2.82086L10.9993 1.68735L11.8415 1.90993L7.97429 5.66368L7.96742 5.67141C7.82184 5.81698 7.71082 5.99339 7.64253 6.1876C7.57424 6.38182 7.55044 6.58889 7.57287 6.79353C7.59531 6.99818 7.66341 7.19517 7.77216 7.36998C7.8809 7.54479 8.02751 7.69294 8.20117 7.80352C9.96804 8.93188 12.1002 8.74883 13.7794 7.37383L16.1555 9.2825L13.537 11.901ZM18.8652 6.92782L16.672 2.545L18.4303 1.66328L20.6243 6.05125L18.8652 6.92782ZM11.3241 14.8916C11.287 15.0402 11.2013 15.1722 11.0806 15.2665C10.96 15.3609 10.8113 15.4122 10.6581 15.4124C10.6016 15.4124 10.5454 15.4054 10.4905 15.3918L6.90953 14.4963C6.82577 14.4757 6.74672 14.4392 6.67663 14.3889L4.41218 12.7716C4.27295 12.6622 4.18125 12.5034 4.15618 12.3282C4.13111 12.153 4.1746 11.9748 4.2776 11.8308C4.38059 11.6868 4.53516 11.5881 4.70911 11.5553C4.88305 11.5224 5.06297 11.5579 5.2114 11.6544L7.36929 13.1961L10.8274 14.0589C11.0043 14.1032 11.1563 14.2158 11.2501 14.3721C11.3439 14.5285 11.3718 14.7156 11.3276 14.8925L11.3241 14.8916Z" fill="white"/>
</svg>
