<svg width="98" height="100" viewBox="0 0 98 100" fill="none" xmlns="http://www.w3.org/2000/svg">
<g clip-path="url(#clip0_165_5837)">
<path d="M19.9778 39.9613C19.9778 28.8012 28.7327 21.5856 42.2018 21.5856C53.9392 21.5856 61.732 28.1277 63.0789 39.0954H58.2685C57.3064 30.6291 51.534 25.8187 42.2018 25.8187C31.6189 25.8187 24.5958 31.3988 24.5958 39.9613C24.5958 46.5034 28.5403 50.8327 36.3331 52.8531L48.4553 55.9318C58.7495 58.5294 64.2334 64.6867 64.2334 73.4416C64.2334 84.8903 55.3823 92.2021 41.7208 92.2021C28.9251 92.2021 20.2664 85.5638 19.2081 74.8847H24.1147C24.4996 82.6775 31.5227 87.8728 41.7208 87.8728C52.5922 87.8728 59.6154 82.2927 59.6154 73.5378C59.6154 66.8032 55.6709 62.2815 47.5894 60.2611L35.7559 57.2787C25.4616 54.6811 19.9778 48.8124 19.9778 39.9613Z" fill="black"/>
<path d="M58.5203 52.8255H38.6871V77.2286H34.3V12.3364H58.5203C70.8589 12.3364 78.4449 20.3794 78.4449 32.4438C78.4449 43.8685 70.7675 52.8255 58.5203 52.8255ZM58.3375 16.3579H38.6871V48.804H57.7891C67.9342 48.804 73.9665 41.9492 73.9665 32.2611C73.9665 22.4815 67.8428 16.3579 58.3375 16.3579Z" fill="black"/>
</g>
<defs>
<clipPath id="clip0_165_5837">
<rect width="97.0095" height="99.2143" fill="white" transform="translate(0.119141 0.0714722)"/>
</clipPath>
</defs>
</svg>
