<svg width="116" height="15" viewBox="0 0 116 15" fill="none" xmlns="http://www.w3.org/2000/svg">
<path d="M8.874 3.902C8.49 3.59 8.106 3.362 7.722 3.218C7.338 3.062 6.966 2.984 6.606 2.984C6.15 2.984 5.778 3.092 5.49 3.308C5.202 3.524 5.058 3.806 5.058 4.154C5.058 4.394 5.13 4.592 5.274 4.748C5.418 4.904 5.604 5.042 5.832 5.162C6.072 5.27 6.336 5.366 6.624 5.45C6.924 5.534 7.218 5.624 7.506 5.72C8.658 6.104 9.498 6.62 10.026 7.268C10.566 7.904 10.836 8.738 10.836 9.77C10.836 10.466 10.716 11.096 10.476 11.66C10.248 12.224 9.906 12.71 9.45 13.118C9.006 13.514 8.454 13.82 7.794 14.036C7.146 14.264 6.408 14.378 5.58 14.378C3.864 14.378 2.274 13.868 0.81 12.848L2.322 10.004C2.85 10.472 3.372 10.82 3.888 11.048C4.404 11.276 4.914 11.39 5.418 11.39C5.994 11.39 6.42 11.258 6.696 10.994C6.984 10.73 7.128 10.43 7.128 10.094C7.128 9.89 7.092 9.716 7.02 9.572C6.948 9.416 6.828 9.278 6.66 9.158C6.492 9.026 6.27 8.906 5.994 8.798C5.73 8.69 5.406 8.57 5.022 8.438C4.566 8.294 4.116 8.138 3.672 7.97C3.24 7.79 2.85 7.556 2.502 7.268C2.166 6.98 1.89 6.62 1.674 6.188C1.47 5.744 1.368 5.186 1.368 4.514C1.368 3.842 1.476 3.236 1.692 2.696C1.92 2.144 2.232 1.676 2.628 1.292C3.036 0.896 3.528 0.59 4.104 0.373999C4.692 0.157999 5.346 0.0499994 6.066 0.0499994C6.738 0.0499994 7.44 0.145999 8.172 0.337999C8.904 0.517999 9.606 0.788 10.278 1.148L8.874 3.902ZM15.3443 0.428L17.6843 9.194L20.5643 0.428H23.3723L26.2523 9.194L28.5923 0.428H32.2823L28.2323 14H24.6323L21.9683 6.134L19.3043 14H15.7043L11.6543 0.428H15.3443ZM37.241 0.428V14H33.713V0.428H37.241ZM47.5283 3.902C47.1443 3.59 46.7603 3.362 46.3763 3.218C45.9923 3.062 45.6203 2.984 45.2603 2.984C44.8043 2.984 44.4323 3.092 44.1443 3.308C43.8563 3.524 43.7123 3.806 43.7123 4.154C43.7123 4.394 43.7843 4.592 43.9283 4.748C44.0723 4.904 44.2583 5.042 44.4863 5.162C44.7263 5.27 44.9903 5.366 45.2783 5.45C45.5783 5.534 45.8723 5.624 46.1603 5.72C47.3123 6.104 48.1523 6.62 48.6803 7.268C49.2203 7.904 49.4903 8.738 49.4903 9.77C49.4903 10.466 49.3703 11.096 49.1303 11.66C48.9023 12.224 48.5603 12.71 48.1043 13.118C47.6603 13.514 47.1083 13.82 46.4483 14.036C45.8003 14.264 45.0623 14.378 44.2343 14.378C42.5183 14.378 40.9283 13.868 39.4643 12.848L40.9763 10.004C41.5043 10.472 42.0263 10.82 42.5423 11.048C43.0583 11.276 43.5683 11.39 44.0723 11.39C44.6483 11.39 45.0743 11.258 45.3503 10.994C45.6383 10.73 45.7823 10.43 45.7823 10.094C45.7823 9.89 45.7463 9.716 45.6743 9.572C45.6023 9.416 45.4823 9.278 45.3143 9.158C45.1463 9.026 44.9243 8.906 44.6483 8.798C44.3843 8.69 44.0603 8.57 43.6763 8.438C43.2203 8.294 42.7703 8.138 42.3263 7.97C41.8943 7.79 41.5043 7.556 41.1563 7.268C40.8203 6.98 40.5443 6.62 40.3283 6.188C40.1243 5.744 40.0223 5.186 40.0223 4.514C40.0223 3.842 40.1303 3.236 40.3463 2.696C40.5743 2.144 40.8863 1.676 41.2823 1.292C41.6903 0.896 42.1823 0.59 42.7583 0.373999C43.3463 0.157999 44.0003 0.0499994 44.7203 0.0499994C45.3923 0.0499994 46.0943 0.145999 46.8263 0.337999C47.5583 0.517999 48.2603 0.788 48.9323 1.148L47.5283 3.902ZM59.165 3.902C58.781 3.59 58.397 3.362 58.013 3.218C57.629 3.062 57.257 2.984 56.897 2.984C56.441 2.984 56.069 3.092 55.781 3.308C55.493 3.524 55.349 3.806 55.349 4.154C55.349 4.394 55.421 4.592 55.565 4.748C55.709 4.904 55.895 5.042 56.123 5.162C56.363 5.27 56.627 5.366 56.915 5.45C57.215 5.534 57.509 5.624 57.797 5.72C58.949 6.104 59.789 6.62 60.317 7.268C60.857 7.904 61.127 8.738 61.127 9.77C61.127 10.466 61.007 11.096 60.767 11.66C60.539 12.224 60.197 12.71 59.741 13.118C59.297 13.514 58.745 13.82 58.085 14.036C57.437 14.264 56.699 14.378 55.871 14.378C54.155 14.378 52.565 13.868 51.101 12.848L52.613 10.004C53.141 10.472 53.663 10.82 54.179 11.048C54.695 11.276 55.205 11.39 55.709 11.39C56.285 11.39 56.711 11.258 56.987 10.994C57.275 10.73 57.419 10.43 57.419 10.094C57.419 9.89 57.383 9.716 57.311 9.572C57.239 9.416 57.119 9.278 56.951 9.158C56.783 9.026 56.561 8.906 56.285 8.798C56.021 8.69 55.697 8.57 55.313 8.438C54.857 8.294 54.407 8.138 53.963 7.97C53.531 7.79 53.141 7.556 52.793 7.268C52.457 6.98 52.181 6.62 51.965 6.188C51.761 5.744 51.659 5.186 51.659 4.514C51.659 3.842 51.767 3.236 51.983 2.696C52.211 2.144 52.523 1.676 52.919 1.292C53.327 0.896 53.819 0.59 54.395 0.373999C54.983 0.157999 55.637 0.0499994 56.357 0.0499994C57.029 0.0499994 57.731 0.145999 58.463 0.337999C59.195 0.517999 59.897 0.788 60.569 1.148L59.165 3.902ZM66.8777 6.656H68.0477C69.3437 6.656 69.9917 6.092 69.9917 4.964C69.9917 3.836 69.3437 3.272 68.0477 3.272H66.8777V6.656ZM66.8777 14H63.3497V0.428H68.9657C70.4897 0.428 71.6537 0.824 72.4577 1.616C73.2737 2.408 73.6817 3.524 73.6817 4.964C73.6817 6.404 73.2737 7.52 72.4577 8.312C71.6537 9.104 70.4897 9.5 68.9657 9.5H66.8777V14ZM78.627 7.214C78.627 7.754 78.729 8.252 78.933 8.708C79.137 9.164 79.413 9.56 79.761 9.896C80.109 10.232 80.511 10.496 80.967 10.688C81.435 10.868 81.927 10.958 82.443 10.958C82.959 10.958 83.445 10.868 83.901 10.688C84.369 10.496 84.777 10.232 85.125 9.896C85.485 9.56 85.767 9.164 85.971 8.708C86.175 8.252 86.277 7.754 86.277 7.214C86.277 6.674 86.175 6.176 85.971 5.72C85.767 5.264 85.485 4.868 85.125 4.532C84.777 4.196 84.369 3.938 83.901 3.758C83.445 3.566 82.959 3.47 82.443 3.47C81.927 3.47 81.435 3.566 80.967 3.758C80.511 3.938 80.109 4.196 79.761 4.532C79.413 4.868 79.137 5.264 78.933 5.72C78.729 6.176 78.627 6.674 78.627 7.214ZM74.937 7.214C74.937 6.206 75.123 5.27 75.495 4.406C75.867 3.53 76.383 2.768 77.043 2.12C77.703 1.472 78.489 0.967999 79.401 0.608C80.325 0.235999 81.339 0.0499994 82.443 0.0499994C83.535 0.0499994 84.543 0.235999 85.467 0.608C86.391 0.967999 87.183 1.472 87.843 2.12C88.515 2.768 89.037 3.53 89.409 4.406C89.781 5.27 89.967 6.206 89.967 7.214C89.967 8.222 89.781 9.164 89.409 10.04C89.037 10.904 88.515 11.66 87.843 12.308C87.183 12.956 86.391 13.466 85.467 13.838C84.543 14.198 83.535 14.378 82.443 14.378C81.339 14.378 80.325 14.198 79.401 13.838C78.489 13.466 77.703 12.956 77.043 12.308C76.383 11.66 75.867 10.904 75.495 10.04C75.123 9.164 74.937 8.222 74.937 7.214ZM99.6474 3.902C99.2634 3.59 98.8794 3.362 98.4954 3.218C98.1114 3.062 97.7394 2.984 97.3794 2.984C96.9234 2.984 96.5514 3.092 96.2634 3.308C95.9754 3.524 95.8314 3.806 95.8314 4.154C95.8314 4.394 95.9034 4.592 96.0474 4.748C96.1914 4.904 96.3774 5.042 96.6054 5.162C96.8454 5.27 97.1094 5.366 97.3974 5.45C97.6974 5.534 97.9914 5.624 98.2794 5.72C99.4314 6.104 100.271 6.62 100.799 7.268C101.339 7.904 101.609 8.738 101.609 9.77C101.609 10.466 101.489 11.096 101.249 11.66C101.021 12.224 100.679 12.71 100.223 13.118C99.7794 13.514 99.2274 13.82 98.5674 14.036C97.9194 14.264 97.1814 14.378 96.3534 14.378C94.6374 14.378 93.0474 13.868 91.5834 12.848L93.0954 10.004C93.6234 10.472 94.1454 10.82 94.6614 11.048C95.1774 11.276 95.6874 11.39 96.1914 11.39C96.7674 11.39 97.1934 11.258 97.4694 10.994C97.7574 10.73 97.9014 10.43 97.9014 10.094C97.9014 9.89 97.8654 9.716 97.7934 9.572C97.7214 9.416 97.6014 9.278 97.4334 9.158C97.2654 9.026 97.0434 8.906 96.7674 8.798C96.5034 8.69 96.1794 8.57 95.7954 8.438C95.3394 8.294 94.8894 8.138 94.4454 7.97C94.0134 7.79 93.6234 7.556 93.2754 7.268C92.9394 6.98 92.6634 6.62 92.4474 6.188C92.2434 5.744 92.1414 5.186 92.1414 4.514C92.1414 3.842 92.2494 3.236 92.4654 2.696C92.6934 2.144 93.0054 1.676 93.4014 1.292C93.8094 0.896 94.3014 0.59 94.8774 0.373999C95.4654 0.157999 96.1194 0.0499994 96.8394 0.0499994C97.5114 0.0499994 98.2134 0.145999 98.9454 0.337999C99.6774 0.517999 100.379 0.788 101.051 1.148L99.6474 3.902ZM107.36 5.666H112.454V0.428H115.982V14H112.454V8.402H107.36V14H103.832V0.428H107.36V5.666Z" fill="white"/>
</svg>
