<svg width="18" height="19" viewBox="0 0 18 19" fill="none" xmlns="http://www.w3.org/2000/svg">
<path d="M8.99903 0.225159C7.23136 0.225159 5.50338 0.749334 4.03362 1.7314C2.56385 2.71346 1.41831 4.10931 0.741854 5.74243C0.0653959 7.37554 -0.111596 9.17257 0.233259 10.9063C0.578114 12.64 1.42933 14.2325 2.67926 15.4824C3.92919 16.7324 5.5217 17.5836 7.25541 17.9284C8.98911 18.2733 10.7861 18.0963 12.4193 17.4198C14.0524 16.7434 15.4482 15.5978 16.4303 14.1281C17.4124 12.6583 17.9365 10.9303 17.9365 9.16266C17.934 6.79305 16.9916 4.52122 15.316 2.84566C13.6405 1.17009 11.3686 0.227661 8.99903 0.225159ZM4.36528 15.1353C4.86263 14.3575 5.54778 13.7174 6.35758 13.274C7.16739 12.8306 8.07578 12.5981 8.99903 12.5981C9.92227 12.5981 10.8307 12.8306 11.6405 13.274C12.4503 13.7174 13.1354 14.3575 13.6328 15.1353C12.3079 16.1657 10.6774 16.7251 8.99903 16.7251C7.32065 16.7251 5.69015 16.1657 4.36528 15.1353ZM6.24903 8.47516C6.24903 7.93126 6.41031 7.39958 6.71249 6.94734C7.01466 6.49511 7.44415 6.14263 7.94665 5.93449C8.44914 5.72635 9.00208 5.67189 9.53553 5.778C10.069 5.88411 10.559 6.14602 10.9436 6.53061C11.3282 6.91521 11.5901 7.40521 11.6962 7.93866C11.8023 8.47211 11.7478 9.02504 11.5397 9.52754C11.3316 10.03 10.9791 10.4595 10.5268 10.7617C10.0746 11.0639 9.54293 11.2252 8.99903 11.2252C8.26968 11.2252 7.57021 10.9354 7.05448 10.4197C6.53876 9.90398 6.24903 9.2045 6.24903 8.47516ZM14.6503 14.1823C13.8835 13.0712 12.8054 12.2116 11.5514 11.7116C12.225 11.181 12.7165 10.4538 12.9576 9.63093C13.1987 8.80809 13.1774 7.93057 12.8966 7.12039C12.6159 6.31022 12.0897 5.60767 11.3911 5.11044C10.6926 4.61321 9.85646 4.34601 8.99903 4.34601C8.14159 4.34601 7.30546 4.61321 6.60692 5.11044C5.90838 5.60767 5.38215 6.31022 5.10141 7.12039C4.82066 7.93057 4.79936 8.80809 5.04046 9.63093C5.28157 10.4538 5.77309 11.181 6.44668 11.7116C5.1927 12.2116 4.11454 13.0712 3.34778 14.1823C2.37889 13.0927 1.74562 11.7463 1.52422 10.3052C1.30282 8.86408 1.50274 7.38968 2.09989 6.05954C2.69705 4.7294 3.66598 3.60025 4.89002 2.80804C6.11405 2.01583 7.541 1.59435 8.99903 1.59435C10.4571 1.59435 11.884 2.01583 13.108 2.80804C14.3321 3.60025 15.301 4.7294 15.8982 6.05954C16.4953 7.38968 16.6952 8.86408 16.4738 10.3052C16.2524 11.7463 15.6192 13.0927 14.6503 14.1823Z" fill="white"/>
</svg>
