<svg width="16" height="16" viewBox="0 0 16 16" fill="none" xmlns="http://www.w3.org/2000/svg">
<path d="M2.49421 12.3697C3.29396 13.3333 4.78243 13.3333 7.75937 13.3333H8.24016C11.2171 13.3333 12.7056 13.3333 13.5053 12.3697M2.49421 12.3697C1.69447 11.406 1.96877 9.94304 2.51739 7.01709C2.90754 4.9363 3.10261 3.89591 3.84321 3.28127M2.49421 12.3697C2.49421 12.3697 2.49421 12.3697 2.49421 12.3697ZM13.5053 12.3697C14.3051 11.406 14.0308 9.94304 13.4821 7.01709C13.092 4.9363 12.8969 3.89591 12.1563 3.28127M13.5053 12.3697C13.5053 12.3697 13.5053 12.3697 13.5053 12.3697ZM12.1563 3.28127C11.4157 2.66663 10.3572 2.66663 8.24016 2.66663H7.75937C5.64233 2.66663 4.58381 2.66663 3.84321 3.28127M12.1563 3.28127C12.1563 3.28127 12.1563 3.28127 12.1563 3.28127ZM3.84321 3.28127C3.84321 3.28127 3.84321 3.28127 3.84321 3.28127Z" stroke="white" stroke-width="1.5"/>
<path d="M6.11377 5.33329C6.38833 6.11009 7.12915 6.66663 7.99997 6.66663C8.87078 6.66663 9.6116 6.11009 9.88616 5.33329" stroke="white" stroke-width="1.5" stroke-linecap="round"/>
</svg>
